<svg xmlns="http://www.w3.org/2000/svg"  viewBox="0 0 139.687 80.312">
  <metadata><?xpacket begin="﻿" id="W5M0MpCehiHzreSzNTczkc9d"?>
<x:xmpmeta xmlns:x="adobe:ns:meta/" x:xmptk="Adobe XMP Core 5.6-c142 79.160924, 2017/07/13-01:06:39        ">
   <rdf:RDF xmlns:rdf="http://www.w3.org/1999/02/22-rdf-syntax-ns#">
      <rdf:Description rdf:about=""/>
   </rdf:RDF>
</x:xmpmeta>
                       
<?xpacket end="w"?></metadata>
<defs>
    <style>
      .cls-1 {
        fill: #deeae6;
        fill-rule: evenodd;
      }
    </style>
  </defs>
  <path id="Л" class="cls-1" d="M798.535,505.939a2.338,2.338,0,0,0-.429-1.477,1.423,1.423,0,0,0-1.171-.517,1.407,1.407,0,0,0-1.175.54,2.377,2.377,0,0,0-.421,1.493v0.895a2.261,2.261,0,0,0,.443,1.444,1.431,1.431,0,0,0,1.16.511,1.411,1.411,0,0,0,1.178-.526,2.366,2.366,0,0,0,.415-1.5v-0.865Zm-0.6.924a1.984,1.984,0,0,1-.252,1.08,0.84,0.84,0,0,1-.744.353,0.849,0.849,0,0,1-.756-0.382,2.021,2.021,0,0,1-.253-1.11v-0.852a1.978,1.978,0,0,1,.257-1.1,0.946,0.946,0,0,1,1.5,0,2.035,2.035,0,0,1,.247,1.121v0.891Zm3.7-2.853h-2.47v4.752h1.54a1.34,1.34,0,0,0,1.017-.383,1.435,1.435,0,0,0,.367-1.036,1.4,1.4,0,0,0-.362-1.02,1.348,1.348,0,0,0-1-.374h-0.96v-1.426h1.87V504.01Zm-0.914,2.451a0.707,0.707,0,0,1,.567.234,0.948,0.948,0,0,1,.2.639,1.027,1.027,0,0,1-.2.664,0.687,0.687,0,0,1-.568.252h-0.953v-1.789h0.956Zm1.9-2.451v4.752h4.208v1.146h0.509l0.058-1.638h-0.411v-4.26h-0.6v4.24h-1.28v-4.24h-0.594v4.24h-1.289v-4.24h-0.6Zm7.609,2.043h-1.681v-1.53h1.926V504.01h-2.523v4.752h2.555V508.25h-1.958v-1.684h1.681v-0.513Zm3.15,1.2a1.457,1.457,0,0,1-.255.832,0.856,0.856,0,0,1-.672.232,0.788,0.788,0,0,1-.71-0.385,2.081,2.081,0,0,1-.243-1.106v-0.872a1.967,1.967,0,0,1,.261-1.114,0.851,0.851,0,0,1,.747-0.381,0.769,0.769,0,0,1,.627.248,1.47,1.47,0,0,1,.245.829h0.6a1.8,1.8,0,0,0-.41-1.178,1.374,1.374,0,0,0-1.066-.411,1.433,1.433,0,0,0-1.18.538,2.279,2.279,0,0,0-.432,1.466v0.862a2.342,2.342,0,0,0,.421,1.473,1.36,1.36,0,0,0,1.136.544,1.454,1.454,0,0,0,1.1-.407,1.761,1.761,0,0,0,.43-1.17h-0.6Zm3.829-3.241h-3.1v0.513h1.247v4.239h0.6v-4.239h1.25V504.01Zm1.834,4.752a1.322,1.322,0,0,0,1-.365,1.392,1.392,0,0,0,.351-1,1.353,1.353,0,0,0-.191-0.732,0.906,0.906,0,0,0-.518-0.4,1.117,1.117,0,0,0,.451-0.4,1.05,1.05,0,0,0,.166-0.587,1.26,1.26,0,0,0-.328-0.95,1.356,1.356,0,0,0-.977-0.317H817.65v4.752h1.4Zm0.026-2.222a0.706,0.706,0,0,1,.725.858,0.91,0.91,0,0,1-.2.628,0.686,0.686,0,0,1-.539.224h-0.816v-1.71h0.829Zm-0.829-2.017h0.758a0.7,0.7,0,0,1,.528.178,0.963,0.963,0,0,1-.018,1.127,0.647,0.647,0,0,1-.5.209h-0.767v-1.514Zm5.872,1.416a2.326,2.326,0,0,0-.429-1.477,1.42,1.42,0,0,0-1.17-.517,1.405,1.405,0,0,0-1.175.54,2.371,2.371,0,0,0-.421,1.493v0.895a2.26,2.26,0,0,0,.442,1.444,1.433,1.433,0,0,0,1.161.511,1.411,1.411,0,0,0,1.178-.526,2.372,2.372,0,0,0,.414-1.5v-0.865Zm-0.6.924a1.976,1.976,0,0,1-.251,1.08,0.84,0.84,0,0,1-.744.353,0.849,0.849,0,0,1-.756-0.382,2.013,2.013,0,0,1-.253-1.11v-0.852a1.979,1.979,0,0,1,.256-1.1,0.947,0.947,0,0,1,1.5,0,2.036,2.036,0,0,1,.246,1.121v0.891Zm4.893,0.388a1.45,1.45,0,0,1-.254.832,0.858,0.858,0,0,1-.673.232,0.789,0.789,0,0,1-.71-0.385,2.081,2.081,0,0,1-.243-1.106v-0.872a1.967,1.967,0,0,1,.261-1.114,0.853,0.853,0,0,1,.748-0.381,0.77,0.77,0,0,1,.627.248,1.471,1.471,0,0,1,.244.829h0.6a1.8,1.8,0,0,0-.409-1.178,1.375,1.375,0,0,0-1.066-.411,1.432,1.432,0,0,0-1.18.538,2.28,2.28,0,0,0-.433,1.466v0.862a2.349,2.349,0,0,0,.421,1.473,1.362,1.362,0,0,0,1.136.544,1.455,1.455,0,0,0,1.1-.407,1.761,1.761,0,0,0,.429-1.17h-0.6Zm5.5-1.312a2.332,2.332,0,0,0-.43-1.477,1.565,1.565,0,0,0-2.345.023,2.377,2.377,0,0,0-.421,1.493v0.895a2.26,2.26,0,0,0,.442,1.444,1.433,1.433,0,0,0,1.161.511,1.411,1.411,0,0,0,1.178-.526,2.372,2.372,0,0,0,.415-1.5v-0.865Zm-0.6.924a1.976,1.976,0,0,1-.251,1.08,0.84,0.84,0,0,1-.744.353,0.849,0.849,0,0,1-.756-0.382,2.021,2.021,0,0,1-.253-1.11v-0.852a1.979,1.979,0,0,1,.256-1.1,0.947,0.947,0,0,1,1.5,0,2.036,2.036,0,0,1,.246,1.121v0.891Zm3.754-2.853H834.6v4.752h0.6v-4.239h1.87V504.01Zm2.05,2.892a1.4,1.4,0,0,0,1.017-.384,1.694,1.694,0,0,0-.018-2.111,1.371,1.371,0,0,0-1.041-.4h-1.515v4.752h0.6V506.9h0.96Zm-0.96-2.379h0.921a0.743,0.743,0,0,1,.6.258,1.025,1.025,0,0,1,.219.686,1,1,0,0,1-.212.684,0.774,0.774,0,0,1-.61.239h-0.918v-1.867Zm4.982,4.239h0.613l-1.534-4.752h-0.512l-1.531,4.752h0.613l0.369-1.243h1.606Zm-1.179-3.916,0.65,2.16h-1.3Zm5.282-.836h-0.6v2.043h-1.913V504.01h-0.6v4.752h0.6v-2.2h1.913v2.2h0.6V504.01Zm1.394,3.662V504.01h-0.6v4.752h0.6l1.85-3.662v3.662h0.6V504.01h-0.6Zm5.509-3.662v2.269a3.463,3.463,0,0,1-1.054.173,0.706,0.706,0,0,1-.584-0.216,1.161,1.161,0,0,1-.176-0.715V504.01h-0.6v1.542a1.533,1.533,0,0,0,.346,1.063,1.34,1.34,0,0,0,1.015.349,3.234,3.234,0,0,0,1.054-.17v1.968h0.6V504.01h-0.6Zm3.669,2.043h-1.681v-1.53h1.926V504.01h-2.523v4.752H858.1V508.25h-1.959v-1.684h1.681v-0.513Zm3.885-2.043h-0.6v2.043H859.19V504.01h-0.6v4.752h0.6v-2.2H861.1v2.2h0.6V504.01Zm3.877,0h-0.6v2.043h-1.913V504.01h-0.6v4.752h0.6v-2.2h1.913v2.2h0.6V504.01Zm3.859,1.929a2.332,2.332,0,0,0-.43-1.477,1.565,1.565,0,0,0-2.345.023,2.377,2.377,0,0,0-.421,1.493v0.895a2.261,2.261,0,0,0,.443,1.444,1.431,1.431,0,0,0,1.16.511,1.411,1.411,0,0,0,1.178-.526,2.372,2.372,0,0,0,.415-1.5v-0.865Zm-0.6.924a1.976,1.976,0,0,1-.251,1.08,0.84,0.84,0,0,1-.744.353,0.849,0.849,0,0,1-.756-0.382,2.021,2.021,0,0,1-.253-1.11v-0.852a1.97,1.97,0,0,1,.257-1.1,0.946,0.946,0,0,1,1.5,0,2.036,2.036,0,0,1,.246,1.121v0.891Zm1.881,0.809V504.01h-0.6v4.752h0.6l1.85-3.662v3.662h0.6V504.01h-0.6Zm1.423-4.843a0.483,0.483,0,0,1-.129.359,0.491,0.491,0,0,1-.358.127,0.481,0.481,0,0,1-.362-0.129,0.492,0.492,0,0,1-.124-0.357H870.68a0.812,0.812,0,0,0,.271.635,1.155,1.155,0,0,0,1.415,0,0.812,0.812,0,0,0,.269-0.637h-0.489Zm6.176,3.11a2.332,2.332,0,0,0-.43-1.477,1.565,1.565,0,0,0-2.345.023,2.377,2.377,0,0,0-.421,1.493v0.895a2.261,2.261,0,0,0,.443,1.444,1.43,1.43,0,0,0,1.16.511,1.411,1.411,0,0,0,1.178-.526,2.372,2.372,0,0,0,.415-1.5v-0.865Zm-0.6.924a1.976,1.976,0,0,1-.251,1.08,0.84,0.84,0,0,1-.744.353,0.849,0.849,0,0,1-.756-0.382,2.021,2.021,0,0,1-.253-1.11v-0.852a1.97,1.97,0,0,1,.257-1.1,0.946,0.946,0,0,1,1.5,0,2.036,2.036,0,0,1,.246,1.121v0.891Zm3.943-2.853h-3.094v0.513h1.247v4.239h0.6v-4.239h1.25V504.01Zm1.835,4.752a1.318,1.318,0,0,0,1-.365,1.392,1.392,0,0,0,.351-1,1.344,1.344,0,0,0-.191-0.732,0.9,0.9,0,0,0-.517-0.4,1.114,1.114,0,0,0,.45-0.4,1.051,1.051,0,0,0,.167-0.587,1.26,1.26,0,0,0-.328-0.95,1.359,1.359,0,0,0-.978-0.317H882.1v4.752h1.4Zm0.026-2.222a0.706,0.706,0,0,1,.725.858,0.915,0.915,0,0,1-.2.628,0.687,0.687,0,0,1-.539.224H882.7v-1.71h0.829Zm-0.829-2.017h0.757a0.7,0.7,0,0,1,.529.178,0.963,0.963,0,0,1-.018,1.127,0.647,0.647,0,0,1-.5.209H882.7v-1.514Zm5.06,1.53h-1.681v-1.53H888V504.01H885.48v4.752h2.556V508.25h-1.958v-1.684h1.681v-0.513Zm3.616-2.043h-3.094v0.513h1.247v4.239h0.6v-4.239h1.25V504.01Zm2.719,3.241a1.45,1.45,0,0,1-.254.832,0.857,0.857,0,0,1-.673.232,0.789,0.789,0,0,1-.71-0.385,2.081,2.081,0,0,1-.243-1.106v-0.872a1.967,1.967,0,0,1,.261-1.114,0.853,0.853,0,0,1,.748-0.381,0.77,0.77,0,0,1,.627.248,1.471,1.471,0,0,1,.244.829h0.6a1.8,1.8,0,0,0-.409-1.178,1.375,1.375,0,0,0-1.066-.411,1.432,1.432,0,0,0-1.18.538,2.28,2.28,0,0,0-.433,1.466v0.862a2.343,2.343,0,0,0,.422,1.473,1.359,1.359,0,0,0,1.135.544,1.455,1.455,0,0,0,1.1-.407,1.761,1.761,0,0,0,.429-1.17h-0.6Zm3.829-3.241h-3.094v0.513h1.247v4.239h0.6v-4.239h1.25V504.01Zm1.835,4.752a1.32,1.32,0,0,0,1-.365,1.392,1.392,0,0,0,.351-1,1.353,1.353,0,0,0-.191-0.732,0.9,0.9,0,0,0-.517-0.4,1.121,1.121,0,0,0,.45-0.4,1.051,1.051,0,0,0,.167-0.587,1.264,1.264,0,0,0-.328-0.95,1.359,1.359,0,0,0-.978-0.317h-1.354v4.752h1.4Zm0.026-2.222a0.706,0.706,0,0,1,.725.858,0.911,0.911,0,0,1-.2.628,0.684,0.684,0,0,1-.538.224h-0.816v-1.71h0.829Zm-0.829-2.017h0.757a0.706,0.706,0,0,1,.529.178,0.963,0.963,0,0,1-.018,1.127,0.647,0.647,0,0,1-.5.209h-0.767v-1.514Zm5.059,1.53h-1.681v-1.53h1.926V504.01h-2.523v4.752h2.556V508.25h-1.959v-1.684h1.681v-0.513Zm3.885-2.043h-0.6v2.043h-1.913V504.01h-0.6v4.752h0.6v-2.2H907.3v2.2h0.6V504.01Zm3.877,0h-0.6v2.043h-1.913V504.01h-0.6v4.752h0.6v-2.2h1.913v2.2h0.6V504.01Zm3.859,1.929a2.332,2.332,0,0,0-.43-1.477,1.565,1.565,0,0,0-2.345.023,2.377,2.377,0,0,0-.421,1.493v0.895a2.261,2.261,0,0,0,.443,1.444,1.431,1.431,0,0,0,1.16.511,1.411,1.411,0,0,0,1.178-.526,2.372,2.372,0,0,0,.415-1.5v-0.865Zm-0.6.924a1.976,1.976,0,0,1-.251,1.08,0.84,0.84,0,0,1-.744.353,0.849,0.849,0,0,1-.756-0.382,2.021,2.021,0,0,1-.253-1.11v-0.852a1.97,1.97,0,0,1,.257-1.1,0.946,0.946,0,0,1,1.5,0,2.036,2.036,0,0,1,.246,1.121v0.891Zm3.63,0.388a1.45,1.45,0,0,1-.254.832,0.86,0.86,0,0,1-.673.232,0.788,0.788,0,0,1-.71-0.385,2.081,2.081,0,0,1-.243-1.106v-0.872a1.967,1.967,0,0,1,.261-1.114,0.852,0.852,0,0,1,.748-0.381,0.768,0.768,0,0,1,.626.248,1.47,1.47,0,0,1,.245.829h0.6a1.8,1.8,0,0,0-.41-1.178,1.372,1.372,0,0,0-1.065-.411,1.43,1.43,0,0,0-1.18.538,2.274,2.274,0,0,0-.433,1.466v0.862a2.349,2.349,0,0,0,.421,1.473,1.362,1.362,0,0,0,1.136.544,1.455,1.455,0,0,0,1.1-.407,1.761,1.761,0,0,0,.429-1.17h-0.6Zm3.829-3.241H919.4v0.513h1.247v4.239h0.6v-4.239h1.25V504.01Zm1.064,0h-0.6v4.752H924.5a1.34,1.34,0,0,0,1.017-.383,1.435,1.435,0,0,0,.367-1.036,1.4,1.4,0,0,0-.362-1.02,1.348,1.348,0,0,0-1-.374h-0.96V504.01Zm0.957,2.451a0.706,0.706,0,0,1,.566.234,0.948,0.948,0,0,1,.2.639,1.028,1.028,0,0,1-.2.664,0.687,0.687,0,0,1-.568.252H923.56v-1.789h0.957Zm6.237-.522a2.326,2.326,0,0,0-.429-1.477,1.423,1.423,0,0,0-1.17-.517,1.43,1.43,0,0,0-1.4.927,2.765,2.765,0,0,0-.2,1.077v0.241h-0.535v-2.18h-0.6v4.752h0.6v-2.079h0.535v0.19a2.26,2.26,0,0,0,.442,1.444,1.433,1.433,0,0,0,1.161.511,1.412,1.412,0,0,0,1.178-.526,2.372,2.372,0,0,0,.414-1.5v-0.865Zm-0.6.924a1.984,1.984,0,0,1-.251,1.08,0.949,0.949,0,0,1-1.5-.029,2.013,2.013,0,0,1-.253-1.11v-0.852a1.979,1.979,0,0,1,.256-1.1,0.947,0.947,0,0,1,1.5,0,2.036,2.036,0,0,1,.246,1.121v0.891ZM839.56,496V475.96l8.7-11.34V496h5.64V448.84l-14.34,18.6V450.4h-5.64V496h5.64Zm44.46,0.3v4.14l3.96,0.06v-9.06H883.9V448.78a46.692,46.692,0,0,0-8.55,4.92,29.057,29.057,0,0,0-6.33,6.3,27.209,27.209,0,0,0-3.96,7.92,32.427,32.427,0,0,0-1.38,9.78l0.06,13.8h-4.08l0.24,8.94h3.54V496.3h20.58Zm-5.52-38.16V491.5h-9.6l-0.12-12.96a27.164,27.164,0,0,1,.63-5.82,26.335,26.335,0,0,1,1.86-5.52,24.754,24.754,0,0,1,3.06-4.95,23.856,23.856,0,0,1,4.17-4.11h0ZM908.679,496v-4.86H898.9V473.8h8.82v-4.86H898.9V455.26h8.82V450.4h-14.46V496h15.42Zm20.4-22.86a18.412,18.412,0,0,1-1.59,3.57,15.671,15.671,0,0,1-2.37,3.12,16.486,16.486,0,0,1-2.88,2.37V457.06a18.275,18.275,0,0,1,2.91,2.37,17.637,17.637,0,0,1,2.37,2.94,14.256,14.256,0,0,1,1.59,3.39,12.28,12.28,0,0,1,.57,3.72A11.9,11.9,0,0,1,929.079,473.14Zm4.5-11.34a18.851,18.851,0,0,0-3.93-5.88,21.972,21.972,0,0,0-5.85-4.2,27.3,27.3,0,0,0-7.2-2.4V496h5.64v-7.8a24.487,24.487,0,0,0,5.25-3.24,20.147,20.147,0,0,0,6.6-9.57,19.538,19.538,0,0,0,.93-6.09A18.858,18.858,0,0,0,933.579,461.8ZM821.26,499.02h6.78l-13.02-68.4q-0.121-.36-0.27-0.69a0.62,0.62,0,0,0-.63-0.33,0.7,0.7,0,0,0-.63.33,3.075,3.075,0,0,0-.33.69l-12.84,68.4h6.48l7.14-40.44Z" transform="translate(-795.344 -429.594)"/>
</svg>
