<?xml version="1.0" encoding="utf-8"?>
<!-- Generator: Adobe Illustrator 17.0.0, SVG Export Plug-In . SVG Version: 6.00 Build 0)  -->
<!DOCTYPE svg PUBLIC "-//W3C//DTD SVG 1.1//EN" "http://www.w3.org/Graphics/SVG/1.1/DTD/svg11.dtd">
<svg version="1.1" id="Layer_1" xmlns="http://www.w3.org/2000/svg" xmlns:xlink="http://www.w3.org/1999/xlink" x="0px" y="0px"
	 width="160px" height="205.333px" viewBox="-12.917 -8.5 160 205.333" enable-background="new -12.917 -8.5 160 205.333"
	 xml:space="preserve">
<g>
	<path fill="#D9271F" d="M13.667,162.25c-10-13.5-15.667-38.583-3.167-55c0.667,12.333,6,19,14,13.5
		c4.417-3,6.075-10.366,3.083-17.083C23.5,94.5,18.917,85,21,74c1.904-10.053,16.083-19.917,22.833-17.167
		c-10.917,6.833-12.768,21.41-1.583,24.417C50,83.333,61.833,65,60,48.667c-1.451-12.928-4.94-24.04,0.333-33.167
		C64.667,8,68.5,4.667,73.5,2.333c0.5,5.333-3.583,12.375-0.583,23.792s14.477,19.108,21.75,34.208
		C104.5,80.75,92.36,90.985,103.333,94c7.583,2.083,12.667-6.333,6-22.333c24,13.667,29.417,49,23.75,62.083
		c-6.25-1.5-12.583-11.333-22.083-7c2.5,1.917,4.5,3.667,4.5,3.667s-1.167,4.875-2.333,6.333c-1.917-0.75-2.708-0.5-6,5.542
		c-0.792,0.083-1.958,0.125-2.458,0.125c-2.75-9.375-12.542-17.333-18.958-16.833c-0.5-0.917-0.708-1.667-0.875-2.25
		c0.75-0.75,1.833-2.042,2.917-2.958c-1.5,0.083-3.833,0.083-3.833,0.083l-0.083-0.917l-4.042-0.125c0,0-0.042-1.083-0.042-2.25
		c1.75-0.25,6.167-1.167,6.708-1.708c0.039-1.217,0.208-3,0.25-4.167c-1.958-1.417-5.083,0.042-5.583-7.917
		c-0.792-7.417-7.958-9.208-11.853-9.208s-8.772,0.75-10.563,6.583c-1.167,4.333-1.38,8.865-5.005,9.531
		c0.328,1.703,3.816,0.239,4.005,4.219c0.167,3.5,0.151,5.859,0.151,5.859s-1,0.031-1.938,0.141c0.25,2.25,1.438,7.359,1.438,7.359
		S47.276,133.5,45.5,134.583c-1.659,1.012-3.623,1.794-5.25,7.083c-1.333,4.333-0.417,4.333-2,8.167
		c-1.583,3.833-4.447,9.121-4.947,10.704s-1.136,4.546,0.447,7.462s4.458,7.292,5.542,11.125
		C30.625,179.625,21.843,173.288,13.667,162.25z M98.833,166.667c-0.125,0.333,1.771,11.521,2.271,13.896
		c6.914-0.342,15.817-6.498,21.729-13.396c6-7,9.526-17.065,8.708-23.167c-1.563,1.125-2.208,2.542-4.479,3.563
		c-1.375-2.125-1.021-1.563-3.021-3.625c-3.604-3.042-5.25-0.938-5.5,1.437c-0.243,2.313-0.375,3.604-2,5.25
		c-1.792,1.646-1.146,3.167-1.083,7.708c0.05,3.625-0.875,4.833-1.5,5.458s-3.854,2-5.167,2.563c-1.129,0.484-3.5,1.333-5.208,1.313
		C101.979,167.625,99.292,166.438,98.833,166.667z"/>
	<g>
		<path fill="#D9271F" d="M43.667,176.973h3.241v5.53h5.177v1.9h-8.418V176.973z"/>
		<path fill="#D9271F" d="M55.062,184.403v-7.431h3.241v7.431H55.062z"/>
		<path fill="#D9271F" d="M71.75,180.688c0,2.477-1.766,3.715-5.295,3.715h-4.37v-7.431h4.37
			C69.985,176.973,71.75,178.212,71.75,180.688z M65.327,182.621h1.07c1.359,0,2.039-0.536,2.039-1.609v-0.647
			c0-1.073-0.68-1.609-2.039-1.609h-1.07V182.621z"/>
		<path fill="#D9271F" d="M74.961,176.973h8.726v1.782h-5.484v1.026h4.692v1.706h-4.692v1.134h5.587v1.782h-8.828V176.973z"/>
		<path fill="#D9271F" d="M96.093,180.483c-0.333,0.367-0.816,0.637-1.452,0.81l2.243,3.11h-3.637l-1.789-2.711h-1.202v2.711h-3.241
			v-7.431h6.174c0.724,0,1.342,0.103,1.855,0.309c0.513,0.205,0.899,0.482,1.158,0.831c0.259,0.35,0.389,0.729,0.389,1.14
			C96.591,179.705,96.425,180.116,96.093,180.483z M93.028,178.863c-0.176-0.13-0.391-0.194-0.646-0.194h-2.126v1.371h2.126
			c0.255,0,0.47-0.066,0.646-0.199c0.176-0.134,0.264-0.298,0.264-0.492S93.204,178.992,93.028,178.863z"/>
	</g>
</g>
</svg>
