<?xml version="1.0" encoding="utf-8"?>
<!-- Generator: Adobe Illustrator 17.0.0, SVG Export Plug-In . SVG Version: 6.00 Build 0)  -->
<!DOCTYPE svg PUBLIC "-//W3C//DTD SVG 1.1//EN" "http://www.w3.org/Graphics/SVG/1.1/DTD/svg11.dtd">
<svg version="1.1" xmlns="http://www.w3.org/2000/svg" xmlns:xlink="http://www.w3.org/1999/xlink" x="0px" y="0px" viewBox="0 0 760 812" enable-background="new 0 0 760 812" xml:space="preserve">
<g id="Layer_2">
	<path fill-rule="evenodd" clip-rule="evenodd" fill-opacity="0" fill="#FFFFFF" d="M81,114c70.36-25.021,472.96-25.901,600,0
		c34.341,236-34,520-300,640C186,693,37,384,81,114z"/>
</g>
<g id="Layer_1">
	<linearGradient id="SVGID_1_" gradientUnits="userSpaceOnUse" x1="570.6464" y1="93.0541" x2="36.882" y2="665.4464">
		<stop  offset="0" style="stop-color:#332F2D"/>
		<stop  offset="0.34" style="stop-color:#99989C"/>
		<stop  offset="0.69" style="stop-color:#494444"/>
		<stop  offset="1" style="stop-color:#332F2D"/>
	</linearGradient>
	<path fill-opacity="0.1" fill-rule="evenodd" clip-rule="evenodd" fill="url(#SVGID_1_)" d="M700.165,133.56
		c23.055,149.119-3.768,307.375-86.079,435.06c-52.971,82.174-126.093,147.227-214.145,189.789l-20.438,9.878l-20.438-9.878
		c-88.053-42.563-161.177-107.616-214.149-189.791C62.608,440.933,35.786,282.678,58.84,133.56l4.87-31.503l31.078-7.103
		c187.371-42.83,382.058-42.83,569.429,0l31.078,7.103L700.165,133.56L700.165,133.56z M665.97,129.36l-9.14-2.09
		c-182.595-41.738-372.06-41.738-554.654,0l-9.14,2.09l-1.434,9.265c-21.833,141.207,3.205,291.072,81.179,412.03
		c49.697,77.096,118.094,137.973,200.71,177.904l6.011,2.906l6.012-2.906c82.615-39.929,151.011-100.807,200.708-177.901
		c77.974-120.959,103.015-270.825,81.181-412.033L665.97,129.36z"/>
	<linearGradient id="SVGID_2_" gradientUnits="userSpaceOnUse" x1="474.7297" y1="194.2706" x2="57.9909" y2="625.8163">
		<stop  offset="0" style="stop-color:#332F2D"/>
		<stop  offset="0.34" style="stop-color:#99989C"/>
		<stop  offset="0.69" style="stop-color:#494444"/>
		<stop  offset="1" style="stop-color:#332F2D"/>
	</linearGradient>
	<path fill-opacity="0.1" fill-rule="evenodd" clip-rule="evenodd" fill="url(#SVGID_2_)" d="M692.552,128.019
		c22.869,147.896-3.619,304.572-85.262,431.222c-52.448,81.362-124.72,145.668-211.906,187.807l-18.034,8.717l-18.033-8.717
		c-87.187-42.139-159.46-106.446-211.909-187.809c-81.642-126.65-108.128-283.325-85.26-431.22l4.298-27.797l27.421-6.268
		c186.645-42.664,380.322-42.664,566.967,0l27.421,6.268L692.552,128.019L692.552,128.019z M670.71,131.396l-2.006-12.971
		l-12.796-2.925c-183.496-41.943-373.62-41.943-557.117,0l-12.797,2.925l-2.006,12.971c-22.052,142.58,3.261,293.729,81.994,415.869
		c50.273,77.986,119.368,139.484,202.95,179.885l8.416,4.068l8.416-4.068c83.581-40.4,152.677-101.898,202.948-179.883
		C667.448,425.127,692.762,273.977,670.71,131.396z"/>
</g>
</svg>
