<?xml version="1.0" encoding="utf-8"?>
<!-- Generator: Adobe Illustrator 17.1.0, SVG Export Plug-In . SVG Version: 6.00 Build 0)  -->
<!DOCTYPE svg PUBLIC "-//W3C//DTD SVG 1.1//EN" "http://www.w3.org/Graphics/SVG/1.1/DTD/svg11.dtd">
<svg version="1.1" id="Layer_1" xmlns="http://www.w3.org/2000/svg" xmlns:xlink="http://www.w3.org/1999/xlink" x="0px" y="0px"
	 viewBox="-894.8 -302.4 570.6 721.5" enable-background="new -894.8 -302.4 570.6 721.5" xml:space="preserve">
<path fill="#FCFFF9" d="M-602.6,394.3C-925,211.9-871.9-136.5-871.4-140.1l0.7-4.4l37.6-12.2v-42.6l57.5-9.6v-48.8l176-28.9
	l175.9,28.9v48.8l57.5,9.6v43l37.6,12l0.7,4.4c0.6,3.5,53.9,351.7-268.9,534.4l-3.1,1.9L-602.6,394.3z"/>
<path fill="#FFEDC9" d="M-347.1-116.8l-44.7-7.8v-56.3l-56-9.5V-235l-151.3-25.7l-139.3,22.3v44.8l-56,9.2v56.3l-51.1,7.2
	c0,0-35.5,313,246.1,491.2C-326.5,218.5-347.1-116.8-347.1-116.8z"/>
<g>
	<polygon fill="#F15152" points="-567.3,280.6 -564.8,288.8 -556.8,288.8 -563.2,293.8 -560.9,301.8 -567.3,296.8 -573.8,301.8 
		-571.3,293.8 -577.7,288.8 -569.8,288.8 	"/>
	<polygon fill="#F15152" points="-621.8,280.6 -619.6,288.8 -611.5,288.8 -618.1,293.8 -615.6,301.8 -621.8,296.8 -628.4,301.8 
		-625.9,293.8 -632.4,288.8 -624.5,288.8 	"/>
	<g>
		<polygon fill="#F15152" points="-594.8,296.9 -594.8,281.5 -597.2,288.8 -605,288.8 -598.7,293.8 -601.1,301.8 		"/>
		<polygon fill="#F15152" points="-584.2,288.8 -592.1,288.8 -594.6,281.5 -594.6,296.9 -588.2,301.8 -590.6,293.8 		"/>
	</g>
</g>
<g>
	<path fill="#575757" d="M-595.6,266.3v3.3c30.3,0.3,58.4,3.9,81,9.2c0.2-2.1,0.2-1.4,0.8-3.6C-536.9,269.9-565.2,266.6-595.6,266.3
		z"/>
	<path fill="#484848" d="M-596.8,266.3c-30.4-0.3-58.8,2.3-82,6.7c0.6,2.2,0.6,1,0.7,3c22.8-4.6,51.3-7.3,81.4-7L-596.8,266.3
		L-596.8,266.3L-596.8,266.3z"/>
</g>
<g>
	<path fill="#F15152" d="M-747,187.5c-26.5-35.6-41.5-101.9-8.2-145.5c1.6,32.5,15.7,50.3,36.9,35.5c11.5-8,16-27.4,8.2-45.2
		C-720.9,8.1-733-17.1-727.4-46c5-26.5,42.5-52.7,60.5-45.2c-29,18-33.7,56.5-4.2,64.6c20.4,5.6,51.9-43.1,46.9-86
		c-3.8-34.3-12.9-63.4,0.8-87.8c11.4-19.9,21.6-28.7,34.7-34.7c1.4,14-9.4,32.5-1.6,62.9c7.8,30.3,38.3,50.5,57.4,90.6
		c26,53.9-6,80.8,22.9,88.9c20.2,5.6,33.4-16.8,15.7-59.1c63.4,36.1,77.9,129.5,62.7,163.9c-16.5-3.8-33.2-30.1-58.2-18.5
		c6.7,5,11.7,9.6,11.7,9.6s-3.1,12.9-6,16.8c-5-2-7.2-1.4-15.7,14.6c-2.2,0.2-5.3,0.2-6.7,0.2c-7.2-24.8-33.2-45.9-50.3-44.5
		c-1.4-2.4-2-4.4-2.2-6c2-2,5-5.6,7.8-7.8c-3.8,0.2-10.2,0.2-10.2,0.2l-0.2-2.4l-10.8-0.2c0,0,0-2.7,0-6c4.8-0.5,16.3-3.1,17.5-4.4
		c0-3.4,0.5-8,0.5-11.1c-5.3-3.8-13.5,0-14.6-20.9c-2.2-19.6-20.9-24.3-31.2-24.3c-10.2,0-23.1,2-27.9,17.3
		c-3.1,11.4-3.6,23.5-13.2,25.2c0.8,4.4,10.2,0.5,10.6,11.1c0.5,9.4,0.2,15.3,0.2,15.3s-2.7,0-5.3,0.2c0.5,6,3.8,19.3,3.8,19.3
		s-26.7,14.9-31.5,17.5c-4.4,2.7-9.6,4.8-13.7,18.7c-3.6,11.4-1.2,11.4-5.3,21.6c-4.2,10.2-11.7,24-12.9,28.2
		c-1.4,4.2-3.1,12.2,1.2,19.6c4.2,7.8,11.7,19.3,14.6,29.6C-702.3,233.4-725.4,216.3-747,187.5z M-522,199c-0.2,0.8,4.8,30.3,6,36.7
		c18.2-0.8,41.6-17.1,57.4-35.3c13.5-16.5,24.3-40.3,24.3-58.2c-4.2,3.1-7.2,3.8-12.9,6.7c-3.6-5.6-2.7-4.2-8-9.6
		c-9.6-8-13.7-2.4-14.6,3.8c-0.5,6-1.2,9.6-5.3,13.7c-4.8,4.4-3.1,8.2-2.7,20.4c0,9.6-2.2,12.7-3.8,14.4c-1.6,1.6-10.2,5.3-13.5,7
		c-3.1,1.4-9.4,3.6-13.7,3.6C-513.8,201.4-520.6,198.5-522,199z"/>
	<path fill="#F15152" d="M-665.5,234.3h8.6v14.6h13.7v5h-22.4L-665.5,234.3L-665.5,234.3z"/>
	<path fill="#F15152" d="M-635.3,253.9v-19.6h8.6v19.6H-635.3z"/>
	<path fill="#F15152" d="M-591.2,243.9c0,6.7-4.8,10-14,10h-11.5v-19.6h11.5C-596,234.3-591.2,237.7-591.2,243.9z M-608.4,249.3h2.7
		c3.6,0,5.6-1.4,5.6-4.2v-1.6c0-2.7-2-4.2-5.6-4.2h-2.7V249.3z"/>
	<path fill="#F15152" d="M-582.7,234.3h23.1v4.8h-14.6v2.7h12.4v4.4h-12.4v3.1h14.6v4.8h-23.5L-582.7,234.3L-582.7,234.3z"/>
	<path fill="#F15152" d="M-527,243.5c-0.8,1.2-2.2,1.6-3.8,2.2l5.8,8.2h-9.6l-4.8-7.2h-3.4v7.2h-8.6v-19.6h16.3c2,0,3.6,0.2,5,0.8
		c1.4,0.5,2.4,1.4,3.1,2.2c0.5,0.8,1.2,2,1.2,3.1C-525.5,241.5-526.1,242.5-527,243.5z M-535,239.2c-0.5-0.2-1.2-0.5-1.6-0.5h-5.6
		v3.6h5.6c0.5,0,1.4-0.2,1.6-0.5c0.5-0.2,0.8-0.8,0.8-1.4C-534.2,239.9-534.7,239.6-535,239.2z"/>
</g>
<g opacity="0.32">
	<path fill="#893400" d="M-597.9-286.5l-183.9,29.8l-0.3,49.1l-58.5,9.6l0.1,43.3l-39.4,13.4c0,0-59.2,354.1,279.7,544.5
		L-597.9-286.5z"/>
</g>
</svg>
